<svg width="40" height="24" xmlns="http://www.w3.org/2000/svg"><g fill="none" fill-rule="evenodd"><path d="M2.243 0h35.514C38.996 0 40 .992 40 2.215v19.57C40 23.008 38.996 24 37.757 24H2.243C1.004 24 0 23.008 0 21.785V2.215C0 .992 1.004 0 2.243 0z" fill="#FFF" fill-rule="nonzero"/><path d="M.5 2.005v19.99A1.5 1.5 0 0 0 1.997 23.5h36.006a1.5 1.5 0 0 0 1.497-1.505V2.005A1.5 1.5 0 0 0 38.003.5H1.997A1.5 1.5 0 0 0 .5 2.005zm-.5 0A2 2 0 0 1 1.997 0h36.006A2 2 0 0 1 40 2.005v19.99A2 2 0 0 1 38.003 24H1.997A2 2 0 0 1 0 21.995V2.005z" fill="#BEC8D2" fill-rule="nonzero"/><g fill="#1A1919"><path d="M8.025 13.82c0-.484-.243-.452-.476-.458v-.14c.202.01.409.01.611.01.217 0 .512-.01.896-.01 1.34 0 2.07.933 2.07 1.887 0 .535-.3 1.877-2.133 1.877-.263 0-.507-.01-.75-.01-.233 0-.461.005-.694.01v-.14c.31-.033.461-.043.476-.41v-2.615zm.507 2.53c0 .415.285.463.539.463 1.118 0 1.485-.879 1.485-1.682 0-1.008-.62-1.736-1.62-1.736-.212 0-.31.016-.404.022v2.933zM11.307 16.846h.099c.144 0 .248 0 .248-.178v-1.462c0-.237-.077-.27-.27-.377v-.086c.244-.076.534-.178.555-.194a.177.177 0 0 1 .093-.027c.025 0 .036.032.036.075v2.07c0 .179.114.179.26.179h.087v.14c-.176 0-.358-.01-.543-.01-.187 0-.373.005-.565.01v-.14zm.554-3.155c-.135 0-.253-.129-.253-.27 0-.134.124-.258.253-.258.135 0 .254.113.254.259 0 .146-.114.27-.254.27zM12.907 15.239c0-.2-.057-.253-.3-.356v-.102c.222-.076.434-.146.683-.26.015 0 .03.011.03.054v.351c.296-.22.55-.404.897-.404.44 0 .595.334.595.755v1.39c0 .179.114.179.259.179h.093v.14c-.182 0-.363-.01-.549-.01-.186 0-.373.005-.56.01v-.14h.094c.145 0 .248 0 .248-.178v-1.396c0-.308-.18-.459-.475-.459-.166 0-.43.14-.601.26v1.595c0 .178.114.178.259.178h.093v.14c-.181 0-.362-.01-.55-.01-.185 0-.372.005-.558.01v-.14h.094c.144 0 .248 0 .248-.178v-1.43M15.557 15.498c-.01.049-.01.13 0 .313.031.512.347.932.761.932.285 0 .508-.162.7-.36l.071.075c-.238.329-.533.61-.957.61-.823 0-.989-.832-.989-1.176 0-1.057.683-1.37 1.045-1.37.42 0 .87.275.876.846 0 .033 0 .065-.005.097l-.047.033h-1.455zm.917-.173c.13 0 .144-.07.144-.135 0-.274-.16-.496-.45-.496-.315 0-.533.243-.595.631h.901zM17.183 16.846h.14c.144 0 .248 0 .248-.178v-1.515c0-.167-.192-.2-.27-.243v-.08c.379-.168.586-.308.633-.308.03 0 .046.016.046.07v.485h.01c.13-.21.348-.555.663-.555.13 0 .295.091.295.285 0 .146-.098.276-.243.276-.16 0-.16-.13-.342-.13a.448.448 0 0 0-.378.448v1.267c0 .178.104.178.249.178h.29v.14c-.286-.005-.502-.01-.725-.01-.212 0-.43.005-.616.01v-.14M19.176 16.236c.067.356.274.659.652.659.305 0 .419-.195.419-.383 0-.637-1.128-.432-1.128-1.3 0-.302.233-.69.802-.69.166 0 .388.048.59.156l.036.55h-.119c-.051-.34-.232-.534-.564-.534-.207 0-.404.124-.404.356 0 .631 1.201.437 1.201 1.284 0 .355-.274.733-.89.733a1.32 1.32 0 0 1-.631-.183l-.058-.62.094-.028M25.335 14.198h-.129c-.098-.63-.528-.884-1.107-.884-.596 0-1.46.415-1.46 1.709 0 1.09.745 1.872 1.542 1.872.512 0 .938-.367 1.04-.934l.12.032-.12.788c-.216.14-.802.286-1.144.286-1.21 0-1.976-.814-1.976-2.027 0-1.106.947-1.899 1.961-1.899.42 0 .823.14 1.222.286l.051.771M25.522 16.846h.098c.146 0 .249 0 .249-.178v-3.003c0-.351-.077-.362-.274-.421v-.087c.207-.07.424-.166.533-.232.056-.031.098-.059.113-.059.032 0 .042.033.042.076v3.726c0 .178.114.178.259.178h.088v.14c-.176 0-.357-.01-.543-.01-.187 0-.373.005-.565.01v-.14M28.846 16.69c0 .097.057.102.144.102.063 0 .14-.005.208-.005v.113a5.065 5.065 0 0 0-.746.167l-.026-.016v-.437c-.31.264-.549.453-.917.453-.279 0-.569-.189-.569-.641v-1.381c0-.14-.02-.275-.31-.302v-.103c.187-.005.6-.037.667-.037.058 0 .058.037.058.156v1.391c0 .162 0 .625.45.625.176 0 .409-.14.626-.328v-1.45c0-.109-.248-.168-.434-.221v-.097c.465-.033.755-.076.807-.076.042 0 .042.037.042.097v1.99M29.876 14.91c.207-.183.486-.388.771-.388.6 0 .963.545.963 1.132 0 .707-.497 1.413-1.238 1.413-.382 0-.584-.13-.72-.189l-.154.124-.109-.059c.047-.318.073-.63.073-.96v-2.318c0-.351-.078-.362-.275-.421v-.087c.207-.07.425-.166.533-.232.057-.031.099-.059.114-.059.031 0 .042.033.042.076v1.968zm0 1.467c0 .204.186.55.533.55.554 0 .787-.566.787-1.047 0-.582-.424-1.067-.828-1.067-.192 0-.353.13-.492.254v1.31zM7.543 20.122h.04c.101 0 .208-.015.208-.168v-1.537c0-.153-.107-.167-.208-.167h-.04v-.088c.11 0 .28.011.418.011.14 0 .31-.011.442-.011v.088h-.04c-.101 0-.208.014-.208.167v1.537c0 .153.107.168.208.168h.04v.088c-.136 0-.305-.012-.445-.012-.139 0-.305.012-.415.012v-.088"/><path d="M8.517 20.222c-.154 0-.345-.011-.504-.011-.155 0-.343.011-.468.011h-.014v-.113h.059c.115-.003.22-.011.221-.155v-1.537c0-.143-.106-.153-.221-.155H7.53v-.113h.014c.125 0 .316.011.472.011.158 0 .35-.011.5-.011h.014v.113h-.058c-.116.002-.222.012-.223.155v1.537c0 .144.107.152.223.155h.058v.113h-.014zm-.014-.025v-.062h-.03c-.114 0-.25-.019-.25-.18v-1.538c0-.162.136-.18.25-.18h.03v-.063c-.147 0-.332.012-.486.012-.151 0-.335-.01-.458-.012v.063h.03c.114 0 .25.018.25.18v1.537c0 .162-.136.18-.25.18h-.03v.063c.123 0 .303-.012.454-.012.156 0 .34.011.49.012z"/><path d="M10.338 19.631l.005-.005v-1.1c0-.241-.16-.276-.245-.276h-.062v-.088c.133 0 .262.011.394.011.116 0 .232-.011.347-.011v.088h-.042c-.119 0-.251.023-.251.372v1.335c0 .103.003.206.016.297h-.107l-1.45-1.685v1.21c0 .255.048.343.265.343h.048v.088c-.122 0-.243-.012-.364-.012-.126 0-.256.012-.383.012v-.088h.04c.194 0 .253-.138.253-.372v-1.237a.258.258 0 0 0-.256-.263h-.037v-.088c.107 0 .217.011.324.011.085 0 .166-.011.25-.011l1.255 1.47"/><path d="M10.5 20.266l-.116-.004-1.429-1.66v1.176c.003.256.04.328.253.33h.06v.114h-.012c-.122 0-.244-.011-.364-.011-.126 0-.255.011-.383.011h-.012v-.113h.052c.186-.001.24-.126.241-.36v-1.235a.246.246 0 0 0-.244-.252h-.05v-.113h.013c.108 0 .218.011.324.011.084 0 .165-.011.26-.007l1.238 1.452v-1.08c-.001-.232-.15-.26-.233-.263h-.074v-.113h.012c.133 0 .263.011.394.011.115 0 .23-.011.347-.011h.012v.113h-.054c-.116.004-.236.014-.24.36v1.335c0 .103.004.205.018.294l.002.015H10.5zm-.106-.025h.093a2.057 2.057 0 0 1-.015-.284v-1.335c0-.352.142-.385.263-.385h.03v-.063c-.111.001-.223.012-.335.012-.129 0-.254-.01-.381-.012v.063h.05c.086 0 .256.04.256.289l-.003 1.109-.006.006-.01.009-1.252-1.476c-.084 0-.165.012-.251.012-.103 0-.21-.01-.311-.012v.063h.024a.27.27 0 0 1 .268.277v1.235c0 .235-.063.385-.265.386h-.027v.062c.122 0 .247-.012.37-.012.118 0 .235.011.351.012v-.062h-.035c-.222 0-.277-.101-.277-.357v-1.242l1.463 1.705zm-.056-.609l.01-.009-.01.01zm-.007-.006v-.001l-.002-.002.002.003zM11.199 18.308c-.212 0-.22.053-.262.267h-.085c.011-.082.025-.164.034-.249.012-.083.017-.164.017-.25h.068c.022.089.093.086.17.086h1.452c.076 0 .147-.003.152-.091l.068.012c-.011.079-.023.158-.03.237-.006.08-.006.158-.006.238l-.085.032c-.006-.108-.02-.282-.209-.282h-.462v1.561c0 .227.1.253.234.253h.054v.088c-.11 0-.307-.012-.46-.012-.168 0-.366.012-.476.012v-.088h.054c.155 0 .234-.015.234-.247v-1.567h-.462"/><path d="M12.31 20.222c-.112 0-.309-.011-.46-.011-.17 0-.366.011-.477.011h-.012v-.113h.066c.155-.004.218-.006.221-.234v-1.554h-.45v-.026h.475v1.58c0 .236-.091.26-.246.26h-.041v.062c.11 0 .3-.012.464-.012.147 0 .335.011.446.012v-.062h-.04c-.137 0-.247-.035-.247-.266v-1.574h.474c.19.001.214.168.22.277l.061-.023c0-.077 0-.153.006-.23.008-.076.018-.15.029-.226l-.043-.008c-.013.086-.093.09-.163.09h-1.468c-.066 0-.138-.004-.163-.086h-.047c0 .081-.006.16-.016.238-.009.08-.022.158-.032.236h.06c.037-.205.061-.27.272-.268v.026c-.209.004-.204.04-.25.257l-.002.01h-.109l.002-.015c.011-.082.026-.164.034-.25a1.72 1.72 0 0 0 .017-.246v-.013h.09l.001.009c.02.074.072.074.143.076h1.468c.078-.002.135-.003.14-.08l.001-.013.013.002.08.014-.002.012a7.203 7.203 0 0 0-.031.237c-.005.078-.005.157-.005.237v.009l-.008.003-.1.038v-.017c-.009-.11-.02-.27-.198-.27h-.45v1.548c.004.222.088.237.222.24h.066v.113h-.012M12.903 20.122h.04c.1 0 .208-.015.208-.168v-1.537c0-.153-.108-.167-.209-.167h-.04v-.088c.172 0 .466.011.702.011.237 0 .53-.011.72-.011-.004.126-.001.32.007.449l-.085.023c-.014-.19-.047-.343-.343-.343h-.391v.768h.334c.17 0 .206-.1.223-.258h.084a6.97 6.97 0 0 0 0 .678l-.084.018c-.017-.176-.025-.29-.22-.29h-.337v.683c0 .19.162.19.343.19.338 0 .487-.023.572-.357l.078.02c-.036.156-.07.311-.095.467-.18 0-.505-.012-.758-.012-.254 0-.589.012-.75.012v-.088"/><path d="M14.41 20.222c-.181 0-.505-.012-.758-.012-.254 0-.589.012-.75.012h-.011v-.113h.051c.102-.002.195-.011.196-.155v-1.537c-.001-.143-.094-.153-.196-.155h-.051v-.113h.012c.172 0 .465.011.7.011.238 0 .53-.011.722-.011h.012v.013a4.82 4.82 0 0 0 .006.447v.011l-.01.003-.099.027v-.015c-.017-.19-.041-.329-.331-.332h-.38v.743h.323c.163-.001.192-.088.21-.246l.001-.012h.109v.014a7.23 7.23 0 0 0 0 .676v.011l-.01.003-.099.02v-.014c-.02-.179-.021-.277-.208-.28h-.326v.672c0 .178.148.177.332.178.339-.002.475-.02.56-.349l.002-.011.012.002.09.024-.002.012c-.037.155-.07.31-.096.466l-.002.01h-.01zm-.01-.025c.024-.148.056-.297.09-.444l-.055-.015c-.084.328-.248.358-.58.355-.178 0-.355 0-.356-.203v-.696h.35c.197-.003.217.121.23.288l.061-.013a6.475 6.475 0 0 1 0-.655h-.06c-.016.153-.062.26-.234.258H13.5v-.794h.404c.293-.003.341.155.354.34l.06-.017a5.145 5.145 0 0 1-.005-.427c-.191.001-.477.012-.708.012-.232 0-.517-.01-.69-.012v.063h.028c.1 0 .22.018.22.18v1.537c0 .162-.12.18-.22.181h-.027v.062c.164 0 .49-.012.737-.012.249 0 .566.011.747.012zM14.886 18.472c0-.214-.113-.222-.2-.222h-.052v-.088c.09 0 .265.011.437.011.169 0 .304-.011.454-.011.354 0 .67.1.67.516 0 .264-.169.425-.391.517l.481.75c.08.125.135.16.273.177v.088c-.093 0-.183-.012-.276-.012-.087 0-.177.012-.264.012a8.171 8.171 0 0 1-.586-.951h-.186v.628c0 .226.101.235.23.235h.051v.088c-.16 0-.323-.012-.484-.012-.135 0-.268.012-.409.012v-.088h.051c.105 0 .2-.05.2-.158v-1.492zm.36.68h.138c.282 0 .434-.11.434-.457 0-.26-.161-.428-.412-.428-.085 0-.12.01-.16.012v.874z"/><path d="M16.558 20.222c-.094 0-.184-.011-.276-.011-.086 0-.176.011-.274.006a8.253 8.253 0 0 1-.583-.945h-.167v.615c.003.22.088.219.218.222h.064v.113h-.013c-.16 0-.325-.011-.484-.011-.135 0-.267.011-.409.011h-.012v-.113h.063c.102 0 .187-.047.188-.145v-1.492c-.002-.208-.1-.207-.188-.21h-.063v-.113h.012c.092 0 .266.011.437.011.168 0 .304-.011.454-.011.355 0 .682.102.682.529 0 .264-.168.43-.385.522l.473.738c.079.122.128.153.265.17l.01.003v.111h-.012zm-1.312-.976h.192l.004.007c.183.337.368.654.576.944.085 0 .176-.012.264-.012.09 0 .177.01.264.012v-.064c-.132-.017-.194-.059-.27-.18l-.491-.764.014-.006c.22-.09.384-.247.384-.505 0-.407-.304-.502-.658-.504-.149 0-.284.012-.454.012-.165 0-.332-.01-.424-.012v.063h.038c.088 0 .212.015.212.235v1.492c0 .117-.106.17-.212.171h-.038v.062c.135 0 .264-.012.396-.012.157 0 .316.011.472.012v-.062h-.039c-.128 0-.243-.017-.243-.248v-.64h.013zm0-.08h-.013v-.899h.011c.039-.004.077-.012.162-.012.257 0 .424.174.424.441 0 .35-.162.47-.446.47h-.138zm.138-.025c.279-.003.419-.104.422-.445-.002-.256-.155-.415-.4-.416-.076 0-.112.007-.148.01v.85h.126zM18.47 19.631l.006-.005v-1.1c0-.241-.16-.276-.245-.276h-.062v-.088c.133 0 .262.011.395.011.115 0 .23-.011.346-.011v.088h-.042c-.118 0-.25.023-.25.372v1.335c0 .103.002.206.016.297h-.107l-1.45-1.685v1.21c0 .255.047.343.264.343h.048v.088c-.12 0-.242-.012-.363-.012-.127 0-.257.012-.383.012v-.088h.039c.194 0 .254-.138.254-.372v-1.237a.258.258 0 0 0-.257-.263h-.036v-.088c.106 0 .217.011.324.011.083 0 .166-.011.25-.011l1.254 1.47"/><path d="M18.634 20.266l-.116-.004-1.43-1.66v1.176c.004.256.04.328.253.33h.06v.114h-.012c-.122 0-.243-.012-.364-.012-.125 0-.256.012-.382.012h-.013v-.113h.052c.186 0 .24-.126.241-.36v-1.236a.245.245 0 0 0-.244-.25h-.049v-.114h.013c.107 0 .217.011.324.011.082 0 .164-.011.258-.007l1.239 1.452v-1.08c-.001-.232-.151-.261-.233-.263h-.074v-.113h.012c.133 0 .263.011.395.011.114 0 .23-.011.346-.011h.012v.113h-.054c-.116.003-.236.014-.239.36v1.335c0 .103.003.205.017.295l.001.014h-.013zm-.107-.025h.092a2.086 2.086 0 0 1-.014-.284v-1.335c0-.352.142-.385.263-.385h.03v-.063c-.111.001-.223.012-.334.012-.13 0-.255-.01-.383-.012v.063h.05c.087 0 .257.04.257.289l-.004 1.109-.005.006-.009.01-1.253-1.477c-.084 0-.165.012-.25.012-.105 0-.21-.01-.312-.012v.063h.024a.27.27 0 0 1 .268.276v1.236c0 .235-.063.385-.265.386h-.027v.062c.121 0 .247-.012.37-.012.118 0 .236.011.352.012v-.062h-.036c-.221 0-.277-.101-.277-.357v-1.241l1.463 1.704zm-.057-.609l.01-.009-.01.01zm-.006-.006l-.002-.003.002.003zM19.363 19.79c-.028.1-.062.177-.062.229 0 .088.118.103.211.103h.032v.088a4.886 4.886 0 0 0-.645 0v-.088h.016c.11 0 .203-.068.245-.191l.45-1.347c.037-.108.088-.255.105-.364.09-.032.203-.09.256-.126.01-.003.014-.006.023-.006.008 0 .014 0 .02.01l.025.072.519 1.535c.033.103.067.211.103.3.034.082.093.117.187.117h.017v.088a7.686 7.686 0 0 0-.812 0v-.088h.031c.064 0 .175-.012.175-.085a.974.974 0 0 0-.057-.212l-.11-.34h-.639l-.09.305zm.411-1.3h-.005l-.262.83h.526l-.259-.83z"/><path d="M20.864 20.222c-.127-.005-.254-.012-.388-.012-.138 0-.279.007-.422.012h-.013v-.114h.043c.065 0 .162-.015.162-.071a.968.968 0 0 0-.055-.208l-.108-.332h-.62l-.088.297c-.029.1-.063.177-.063.225.001.072.107.09.2.09h.043v.114h-.012c-.113-.006-.228-.013-.34-.013-.101 0-.203.007-.304.012h-.013v-.114h.03c.104 0 .191-.062.232-.181l.451-1.347c.037-.109.088-.255.112-.372.088-.031.202-.09.256-.126.008-.003.015-.006.027-.006.007 0 .022 0 .031.016l.026.074.518 1.535c.033.103.067.211.104.298.032.078.084.11.175.11h.028v.114h-.012zm-.799-.026c.14-.005.276-.01.411-.01.13 0 .253.005.376.01v-.061h-.004c-.097 0-.163-.04-.198-.126-.037-.088-.07-.197-.104-.3l-.519-1.535c-.008-.023-.016-.05-.024-.07-.002-.003-.002-.003-.004-.003h-.005c-.006 0-.01.002-.017.004a1.023 1.023 0 0 1-.25.117c-.018.111-.068.258-.105.367l-.45 1.346c-.043.127-.142.2-.257.2h-.004v.061c.096-.005.194-.01.291-.01.11 0 .22.005.328.01v-.061h-.018c-.092-.002-.22-.012-.223-.116 0-.058.034-.133.062-.232l.012.003-.012-.004.093-.313h.657l.112.348a.921.921 0 0 1 .058.216c-.004.09-.123.096-.187.098h-.019v.061zm-.575-.863l.27-.856h.014v.013l-.003.001h.003v-.014h.009l.268.856h-.561zm.033-.025h.493l-.245-.786-.248.786zm.24-.814l.006-.002-.007.002zM20.988 18.308c-.21 0-.22.053-.262.267h-.085c.012-.082.026-.164.035-.249.01-.083.016-.164.016-.25h.068c.022.089.093.086.169.086h1.454c.075 0 .146-.003.151-.091l.068.012c-.01.079-.022.158-.03.237-.007.08-.007.158-.007.238l-.084.032c-.005-.108-.02-.282-.209-.282h-.461v1.561c0 .227.098.253.233.253h.054v.088c-.11 0-.307-.012-.46-.012-.168 0-.366.012-.475.012v-.088h.053c.156 0 .234-.015.234-.247v-1.567h-.462"/><path d="M22.098 20.222c-.11 0-.308-.011-.46-.011-.168 0-.365.011-.475.011h-.013v-.113h.066c.156-.004.218-.006.222-.234v-1.554h-.45v-.026h.474v1.58c0 .236-.091.26-.246.26h-.041v.062c.111 0 .3-.012.464-.012.147 0 .335.011.447.012v-.062h-.042c-.136 0-.245-.035-.245-.266v-1.574h.473c.19.001.214.168.22.277l.061-.023c0-.077 0-.153.006-.23.008-.076.018-.15.029-.226l-.043-.008c-.013.086-.092.09-.162.09h-1.468c-.067 0-.139-.004-.164-.086h-.046c-.001.081-.007.16-.018.238-.007.081-.02.159-.032.236h.06c.038-.205.062-.271.273-.268v.026c-.209.004-.204.04-.25.257l-.002.01h-.109l.002-.014c.012-.083.026-.165.034-.25.011-.082.017-.163.017-.247v-.013h.09l.001.009c.02.074.071.074.144.076h1.468c.078-.002.134-.003.14-.08v-.013l.013.002.08.014-.002.012a6.206 6.206 0 0 0-.03.237c-.007.078-.007.157-.007.237v.009l-.008.003-.1.038v-.017c-.007-.11-.019-.27-.197-.27h-.45v1.548c.004.222.088.237.222.24h.066v.113h-.012M22.706 20.122h.04c.1 0 .207-.015.207-.168v-1.537c0-.153-.106-.167-.208-.167h-.04v-.088c.11 0 .28.011.417.011.141 0 .31-.011.443-.011v.088h-.04c-.101 0-.208.014-.208.167v1.537c0 .153.107.168.209.168h.04v.088c-.136 0-.305-.012-.446-.012-.138 0-.304.012-.414.012v-.088"/><path d="M23.68 20.222c-.154 0-.344-.012-.504-.012-.156 0-.344.012-.469.012h-.013v-.113h.058c.115-.002.221-.011.222-.155v-1.537c0-.143-.107-.153-.222-.155h-.058v-.113h.013c.125 0 .317.011.472.011.159 0 .35-.011.502-.011h.013v.113h-.058c-.117.002-.222.012-.223.155v1.537c.001.144.106.153.223.155h.058v.113h-.013zm-.014-.025v-.062h-.03c-.115 0-.25-.019-.25-.18v-1.538c0-.162.135-.18.25-.18h.03v-.063c-.147.001-.332.012-.487.012-.151 0-.334-.01-.458-.012v.063h.031c.113 0 .25.018.25.18v1.537c0 .162-.137.18-.25.18h-.03v.063c.122-.001.303-.012.454-.012.155 0 .34.011.49.012z"/><path d="M24.688 18.118c.6 0 1.08.387 1.08 1.012 0 .675-.465 1.124-1.065 1.124-.598 0-1.054-.423-1.054-1.054 0-.61.454-1.082 1.04-1.082m.042 2.007c.546 0 .642-.502.642-.93 0-.43-.222-.948-.69-.948-.493 0-.64.458-.64.85 0 .526.232 1.028.688 1.028"/><path d="M23.637 19.2c0-.617.46-1.094 1.051-1.095v.025c-.579 0-1.027.467-1.027 1.07 0 .624.45 1.04 1.042 1.04.594 0 1.052-.442 1.052-1.11 0-.617-.471-.999-1.067-1v-.025c.605 0 1.09.392 1.091 1.025 0 .682-.47 1.135-1.076 1.136-.603-.001-1.065-.428-1.066-1.066m.394-.103c.001-.394.149-.863.652-.863.478 0 .701.53.702.96 0 .429-.097.943-.654.943v-.025c.536 0 .629-.49.63-.917 0-.425-.22-.935-.678-.935-.483 0-.626.447-.627.837 0 .523.229 1.014.675 1.015v.025c-.468 0-.699-.511-.7-1.04M27.665 19.631l.006-.005v-1.1c0-.241-.16-.276-.245-.276h-.062v-.088c.132 0 .262.011.394.011.116 0 .232-.011.347-.011v.088h-.042c-.118 0-.251.023-.251.372v1.335c0 .103.003.206.017.297h-.107l-1.45-1.685v1.21c0 .255.047.343.264.343h.048v.088c-.121 0-.242-.012-.363-.012-.127 0-.257.012-.384.012v-.088h.04c.195 0 .253-.138.253-.372v-1.237a.257.257 0 0 0-.256-.263h-.037v-.088c.107 0 .217.011.324.011.085 0 .166-.011.25-.011l1.254 1.47"/><path d="M27.83 20.266l-.117-.004-1.43-1.66v1.176c.004.256.04.328.252.33h.06v.114h-.011c-.122 0-.243-.011-.363-.011-.127 0-.256.011-.384.011h-.011v-.114h.05c.186 0 .24-.125.242-.359v-1.236a.245.245 0 0 0-.244-.25h-.048v-.114h.011c.108 0 .218.011.324.011.084 0 .165-.011.26-.007l1.238 1.452v-1.08c-.001-.232-.151-.26-.233-.263h-.074v-.113h.012c.133 0 .263.011.394.011.115 0 .23-.011.347-.011h.012v.113h-.054c-.116.004-.236.015-.239.36v1.335c0 .103.003.205.016.295l.003.014h-.014zm-.108-.025h.092a2.163 2.163 0 0 1-.014-.284v-1.335c0-.352.142-.385.263-.385h.03v-.063c-.112.001-.222.012-.335.012-.128 0-.254-.01-.382-.012v.063h.05c.087 0 .257.04.257.289l-.003 1.109-.006.006-.009.01-1.253-1.477c-.083 0-.165.012-.25.012-.105 0-.21-.01-.313-.012v.063h.025a.27.27 0 0 1 .268.276v1.236c0 .235-.063.385-.265.386h-.028v.062c.122 0 .248-.012.372-.012.117 0 .234.011.35.012v-.062h-.036c-.22 0-.276-.101-.276-.357v-1.242l1.463 1.705zm-.057-.609l.01-.009-.01.01zm-.006-.006l-.002-.003.002.003zM28.558 19.79c-.028.1-.062.177-.062.229 0 .088.119.103.211.103h.031v.088a4.854 4.854 0 0 0-.645 0v-.088h.017c.11 0 .203-.068.245-.191l.451-1.347c.037-.108.087-.255.104-.364.09-.032.203-.09.257-.126.008-.003.013-.006.022-.006.008 0 .014 0 .02.01l.025.072.518 1.535c.034.103.068.211.105.3.033.082.092.117.185.117h.018v.088a7.69 7.69 0 0 0-.812 0v-.088h.031c.065 0 .175-.012.175-.085a.97.97 0 0 0-.057-.212l-.11-.34h-.639l-.09.305zm.411-1.3h-.005l-.263.83h.528l-.26-.83z"/><path d="M30.058 20.222c-.127-.005-.253-.011-.387-.011-.138 0-.279.006-.422.011h-.013v-.113h.043c.065 0 .162-.016.162-.072a.943.943 0 0 0-.056-.208l-.107-.332h-.622l-.087.297c-.028.1-.061.177-.06.225 0 .072.105.09.198.09h.043v.114h-.013c-.112-.006-.228-.012-.34-.012-.1 0-.202.006-.303.011h-.013v-.113h.029c.105 0 .192-.063.234-.182l.45-1.347c.036-.109.087-.255.112-.372a1.51 1.51 0 0 0 .256-.126c.008-.003.015-.006.027-.006.007 0 .022 0 .03.017.01.023.018.05.027.073l.518 1.535c.034.103.067.211.104.299.033.077.084.108.174.109h.03v.114h-.014zm-.798-.026c.14-.005.276-.01.41-.01.132 0 .254.005.377.01v-.061h-.005c-.095 0-.162-.04-.197-.126-.037-.088-.07-.197-.104-.3l-.519-1.535a2.983 2.983 0 0 1-.024-.07l-.003-.003h-.006c-.006 0-.01.002-.016.004a1.06 1.06 0 0 1-.25.117c-.018.111-.07.258-.106.367l-.45 1.346c-.044.127-.142.2-.257.2h-.005v.061c.097-.005.194-.01.292-.01.11 0 .22.005.329.01v-.061h-.02c-.09-.002-.22-.012-.223-.116.001-.058.036-.133.063-.232l.012.003-.012-.004.093-.313h.657l.113.348a.946.946 0 0 1 .056.216c-.004.09-.122.096-.186.098h-.02v.061zm-.576-.863l.27-.856h.015v.013l-.003.001h.003v-.014h.009l.266.856h-.56zm.034-.025h.493l-.245-.786-.248.786zm.24-.814l.006-.002-.006.002zM30.77 19.922c0 .118.077.153.168.165.115.009.242.009.372-.006a.398.398 0 0 0 .27-.159.688.688 0 0 0 .087-.211h.082c-.031.167-.07.332-.104.499-.248 0-.496-.012-.744-.012s-.496.012-.743.012v-.088h.039c.101 0 .212-.015.212-.197v-1.508c0-.153-.11-.167-.212-.167h-.04v-.088c.15 0 .296.011.445.011.144 0 .285-.011.429-.011v.088h-.07c-.108 0-.192.003-.192.158v1.514"/><path d="M31.645 20.222c-.249 0-.497-.011-.744-.011-.248 0-.495.011-.744.011h-.012v-.113h.052c.101-.003.198-.01.2-.184v-1.508c-.002-.143-.098-.153-.2-.155h-.052v-.113h.012c.15 0 .297.011.445.011.144 0 .284-.011.429-.011h.011v.113h-.082c-.11.003-.177-.002-.18.146v1.514c.001.11.07.139.158.152a2.193 2.193 0 0 0 .37-.006.391.391 0 0 0 .262-.153.675.675 0 0 0 .085-.207l.002-.01h.107l-.003.016c-.032.167-.07.331-.105.498l-.002.01h-.01zm-.01-.025c.032-.16.069-.315.1-.474h-.059a.678.678 0 0 1-.086.207.415.415 0 0 1-.28.163 2.077 2.077 0 0 1-.374.006c-.092-.01-.18-.052-.18-.177v-1.514c0-.163.099-.171.204-.171h.058v-.063c-.139.001-.276.012-.416.012-.145 0-.288-.01-.432-.012v.063h.027c.1 0 .223.018.223.18v1.508c0 .19-.122.21-.223.21h-.027v.062c.243 0 .487-.012.731-.012.245 0 .49.011.733.012zM31.803 18.078c.221 0 .386.18.386.41 0 .23-.165.408-.386.408-.22 0-.385-.178-.385-.408 0-.23.165-.41.385-.41zm0 .742c.173 0 .305-.156.305-.332 0-.176-.13-.333-.305-.333-.173 0-.305.157-.305.333 0 .176.132.332.305.332zm-.191-.116v-.02c.047-.007.056-.006.056-.036v-.303c0-.043-.004-.058-.055-.055v-.021h.197c.068 0 .13.034.13.109 0 .06-.037.105-.09.123l.063.094c.03.042.063.082.085.096v.013h-.075c-.036 0-.068-.08-.139-.188h-.042v.136c0 .026.008.025.056.032v.02h-.186zm.13-.216h.05c.054 0 .08-.04.08-.104 0-.065-.04-.088-.083-.088h-.047v.192z"/></g><path d="M14.632 8.2c0-2.35 1.963-4.254 4.383-4.254 2.421 0 4.384 1.904 4.384 4.254 0 2.35-1.963 4.254-4.384 4.254-2.42 0-4.383-1.905-4.383-4.254" fill="#FFFFFE"/><path d="M21.666 8.116c-.002-1.09-.703-2.018-1.692-2.386v4.772c.989-.368 1.69-1.296 1.692-2.386zm-3.578 2.385v-4.77c-.988.368-1.688 1.296-1.69 2.385.002 1.089.702 2.016 1.69 2.385zm.944-6.419c-2.296.001-4.156 1.806-4.156 4.034 0 2.227 1.86 4.032 4.156 4.033 2.295 0 4.155-1.806 4.156-4.033 0-2.228-1.86-4.033-4.156-4.034zm-.01 8.448c-2.512.011-4.58-1.964-4.58-4.368 0-2.627 2.068-4.445 4.58-4.444h1.177c2.482 0 4.747 1.816 4.747 4.444 0 2.403-2.265 4.368-4.747 4.368H19.02z" fill="#184977"/></g></svg>